<?xml version="1.0" encoding="UTF-8"?>
<!-- Placeholder reference rendered from the game code. Not the final asset. -->
<svg xmlns="http://www.w3.org/2000/svg" viewBox="-28 -89 56 94.8" width="56" height="94.8"><g><rect x="-12" y="-28" width="10" height="27" fill="#2c3e6b" stroke="#3a2213" stroke-linejoin="round" stroke-linecap="round" stroke-width="2"/><rect x="2" y="-28" width="10" height="27" fill="#2c3e6b" stroke="#3a2213" stroke-linejoin="round" stroke-linecap="round" stroke-width="2"/><ellipse rx="6" ry="2.8" transform="translate(-8 0) rotate(0)" fill="#c98f5c" stroke="#3a2213" stroke-linejoin="round" stroke-linecap="round" stroke-width="1.6"/><ellipse rx="6" ry="2.8" transform="translate(8 0) rotate(0)" fill="#c98f5c" stroke="#3a2213" stroke-linejoin="round" stroke-linecap="round" stroke-width="1.6"/><path d="M-14 -50Q-22 -38 -19 -28" fill="none" stroke="#3a2213" stroke-width="7.4" stroke-linecap="round" stroke-linejoin="round"/><path d="M-14 -50Q-22 -38 -19 -28" fill="none" stroke="#35507a" stroke-width="5" stroke-linecap="round" stroke-linejoin="round"/><circle cx="-19" cy="-27" r="3.2" fill="#d9a066" stroke="#3a2213" stroke-linejoin="round" stroke-linecap="round" stroke-width="1.5"/><path d="M14 -50Q22 -40 20 -30" fill="none" stroke="#3a2213" stroke-width="7.4" stroke-linecap="round" stroke-linejoin="round"/><path d="M14 -50Q22 -40 20 -30" fill="none" stroke="#35507a" stroke-width="5" stroke-linecap="round" stroke-linejoin="round"/><circle cx="20" cy="-29" r="3.2" fill="#d9a066" stroke="#3a2213" stroke-linejoin="round" stroke-linecap="round" stroke-width="1.5"/><path d="M-14 -52Q0 -58 14 -52L13 -26L-13 -26Z" fill="#35507a" stroke="#3a2213" stroke-linejoin="round" stroke-linecap="round" stroke-width="2.4"/><rect x="-14" y="-32" width="28" height="6" fill="#d8453a" stroke="#3a2213" stroke-linejoin="round" stroke-linecap="round" stroke-width="1.8"/><path d="M-8 -32v6M-2 -32v6M4 -32v6M10 -32v6M-14 -29h28" fill="none" stroke="#fff" stroke-width="0.9" stroke-linecap="round" stroke-linejoin="round"/><circle cx="0" cy="-62" r="10" fill="#d9a066" stroke="#3a2213" stroke-linejoin="round" stroke-linecap="round" stroke-width="2"/><circle cx="-4" cy="-64" r="1.5" fill="#3a2213"/><circle cx="4" cy="-64" r="1.5" fill="#3a2213"/><path d="M-4 -59q4 3 8 0" fill="none" stroke="#3a2213" stroke-width="1.6" stroke-linecap="round" stroke-linejoin="round"/><path d="M-25 -67Q0 -94 25 -67Q0 -72 -25 -67Z" fill="#e3c070" stroke="#3a2213" stroke-linejoin="round" stroke-linecap="round" stroke-width="2.4"/><path d="M-14 -72L0 -86L14 -72M-6 -70L0 -86L6 -70" fill="none" stroke="#b8963f" stroke-width="1.2" stroke-linecap="round" stroke-linejoin="round"/></g></svg>
