<svg xmlns="http://www.w3.org/2000/svg" viewBox="0 0 150 50" width="150" height="50">
<!-- prop.trough · empty duck feed trough. Feed area x8-142 y6-24 is drawn by the game. Anchor (75,48) -->
<g stroke-linejoin="round" stroke-linecap="round">
<path d="M8 36H17V48H8ZM133 36H142V48H133Z" fill="#7a4a26" stroke="#3a2213" stroke-width="1.8"/><path d="M1 3H149L145 40H5Z" fill="#9a6a3c" stroke="#3a2213" stroke-width="3"/><path d="M3 3H147L146.6 7H3.4Z" fill="#b88350" stroke="none"/><rect x="8" y="6" width="134" height="18" rx="3" fill="#5a3a22" stroke="#3a2213" stroke-width="1.4"/><path d="M5 30H145" fill="none" stroke="#7a4a26" stroke-width="1.6"/><path d="M52 26V39M100 26V39" fill="none" stroke="#7a4a26" stroke-width="1.4"/><circle cx="10" cy="33" r="1.2" fill="#4a4a4a" stroke="none"/><circle cx="140" cy="33" r="1.2" fill="#4a4a4a" stroke="none"/><circle cx="52" cy="35" r="1" fill="#4a4a4a" stroke="none"/><circle cx="100" cy="35" r="1" fill="#4a4a4a" stroke="none"/><path d="M20 34q6 -2 12 0M110 35q5 -2 10 0" fill="none" stroke="#b88350" stroke-width="1.2"/>
</g>
</svg>
