<svg xmlns="http://www.w3.org/2000/svg" viewBox="0 0 1400 600" width="1400" height="600">
<!-- Rai Sukjai market interior prototype · front view -->
<g stroke-linejoin="round" stroke-linecap="round">
<g transform="translate(300 0)"><rect x="-300" y="0" width="1400" height="600" fill="#c78b52" stroke="none"/><path d="M-300 70H1100M-300 94H1100M-300 118H1100M-300 142H1100M-300 166H1100M-300 190H1100M-300 214H1100M-300 238H1100M-300 262H1100M-300 286H1100M-300 310H1100M-300 334H1100M-300 358H1100M-300 382H1100M-300 406H1100" fill="none" stroke="#a8703f" stroke-width="2"/><rect x="-300" y="40" width="16" height="400" fill="#8a5530" stroke="#3a2213" stroke-width="2"/><rect x="-110" y="40" width="16" height="400" fill="#8a5530" stroke="#3a2213" stroke-width="2"/><rect x="80" y="40" width="16" height="400" fill="#8a5530" stroke="#3a2213" stroke-width="2"/><rect x="270" y="40" width="16" height="400" fill="#8a5530" stroke="#3a2213" stroke-width="2"/><rect x="460" y="40" width="16" height="400" fill="#8a5530" stroke="#3a2213" stroke-width="2"/><rect x="650" y="40" width="16" height="400" fill="#8a5530" stroke="#3a2213" stroke-width="2"/><rect x="840" y="40" width="16" height="400" fill="#8a5530" stroke="#3a2213" stroke-width="2"/><rect x="1030" y="40" width="16" height="400" fill="#8a5530" stroke="#3a2213" stroke-width="2"/><rect x="-300" y="170" width="1400" height="12" fill="#9a6232" stroke="#3a2213" stroke-width="2"/><rect x="-300" y="182" width="1400" height="6" fill="#6e4526" stroke="none"/><ellipse cx="-270" cy="164" rx="26" ry="10" fill="#c9a15a" stroke="#3a2213" stroke-width="2" transform="rotate(2 -270 164)"/><circle cx="-282" cy="156.8" r="7" fill="#e0342b" stroke="#3a2213" stroke-width="1.6"/><circle cx="-270" cy="158" r="7" fill="#e0342b" stroke="#3a2213" stroke-width="1.6"/><circle cx="-258" cy="156.8" r="7" fill="#e0342b" stroke="#3a2213" stroke-width="1.6"/><circle cx="-276" cy="148" r="7" fill="#e0342b" stroke="#3a2213" stroke-width="1.6"/><circle cx="-264" cy="148" r="7" fill="#e0342b" stroke="#3a2213" stroke-width="1.6"/><ellipse cx="-200" cy="164" rx="26" ry="10" fill="#c9a15a" stroke="#3a2213" stroke-width="2" transform="rotate(2 -200 164)"/><circle cx="-212" cy="156.8" r="7" fill="#6aa83a" stroke="#3a2213" stroke-width="1.6"/><circle cx="-200" cy="158" r="7" fill="#6aa83a" stroke="#3a2213" stroke-width="1.6"/><circle cx="-188" cy="156.8" r="7" fill="#6aa83a" stroke="#3a2213" stroke-width="1.6"/><circle cx="-206" cy="148" r="7" fill="#6aa83a" stroke="#3a2213" stroke-width="1.6"/><circle cx="-194" cy="148" r="7" fill="#6aa83a" stroke="#3a2213" stroke-width="1.6"/><ellipse cx="-130" cy="164" rx="26" ry="10" fill="#c9a15a" stroke="#3a2213" stroke-width="2" transform="rotate(2 -130 164)"/><circle cx="-142" cy="156.8" r="7" fill="#f2b632" stroke="#3a2213" stroke-width="1.6"/><circle cx="-130" cy="158" r="7" fill="#f2b632" stroke="#3a2213" stroke-width="1.6"/><circle cx="-118" cy="156.8" r="7" fill="#f2b632" stroke="#3a2213" stroke-width="1.6"/><circle cx="-136" cy="148" r="7" fill="#f2b632" stroke="#3a2213" stroke-width="1.6"/><circle cx="-124" cy="148" r="7" fill="#f2b632" stroke="#3a2213" stroke-width="1.6"/><ellipse cx="-60" cy="164" rx="26" ry="10" fill="#c9a15a" stroke="#3a2213" stroke-width="2" transform="rotate(2 -60 164)"/><circle cx="-72" cy="156.8" r="7" fill="#b8466a" stroke="#3a2213" stroke-width="1.6"/><circle cx="-60" cy="158" r="7" fill="#b8466a" stroke="#3a2213" stroke-width="1.6"/><circle cx="-48" cy="156.8" r="7" fill="#b8466a" stroke="#3a2213" stroke-width="1.6"/><circle cx="-66" cy="148" r="7" fill="#b8466a" stroke="#3a2213" stroke-width="1.6"/><circle cx="-54" cy="148" r="7" fill="#b8466a" stroke="#3a2213" stroke-width="1.6"/><ellipse cx="10" cy="164" rx="26" ry="10" fill="#c9a15a" stroke="#3a2213" stroke-width="2" transform="rotate(2 10 164)"/><circle cx="-2" cy="156.8" r="7" fill="#8a4ac0" stroke="#3a2213" stroke-width="1.6"/><circle cx="10" cy="158" r="7" fill="#8a4ac0" stroke="#3a2213" stroke-width="1.6"/><circle cx="22" cy="156.8" r="7" fill="#8a4ac0" stroke="#3a2213" stroke-width="1.6"/><circle cx="4" cy="148" r="7" fill="#8a4ac0" stroke="#3a2213" stroke-width="1.6"/><circle cx="16" cy="148" r="7" fill="#8a4ac0" stroke="#3a2213" stroke-width="1.6"/><ellipse cx="80" cy="164" rx="26" ry="10" fill="#c9a15a" stroke="#3a2213" stroke-width="2" transform="rotate(2 80 164)"/><circle cx="68" cy="156.8" r="7" fill="#8a4ac0" stroke="#3a2213" stroke-width="1.6"/><circle cx="80" cy="158" r="7" fill="#8a4ac0" stroke="#3a2213" stroke-width="1.6"/><circle cx="92" cy="156.8" r="7" fill="#8a4ac0" stroke="#3a2213" stroke-width="1.6"/><circle cx="74" cy="148" r="7" fill="#8a4ac0" stroke="#3a2213" stroke-width="1.6"/><circle cx="86" cy="148" r="7" fill="#8a4ac0" stroke="#3a2213" stroke-width="1.6"/><ellipse cx="150" cy="164" rx="26" ry="10" fill="#c9a15a" stroke="#3a2213" stroke-width="2" transform="rotate(2 150 164)"/><circle cx="138" cy="156.8" r="7" fill="#e0342b" stroke="#3a2213" stroke-width="1.6"/><circle cx="150" cy="158" r="7" fill="#e0342b" stroke="#3a2213" stroke-width="1.6"/><circle cx="162" cy="156.8" r="7" fill="#e0342b" stroke="#3a2213" stroke-width="1.6"/><circle cx="144" cy="148" r="7" fill="#e0342b" stroke="#3a2213" stroke-width="1.6"/><circle cx="156" cy="148" r="7" fill="#e0342b" stroke="#3a2213" stroke-width="1.6"/><ellipse cx="220" cy="164" rx="26" ry="10" fill="#c9a15a" stroke="#3a2213" stroke-width="2" transform="rotate(2 220 164)"/><circle cx="208" cy="156.8" r="7" fill="#f2b632" stroke="#3a2213" stroke-width="1.6"/><circle cx="220" cy="158" r="7" fill="#f2b632" stroke="#3a2213" stroke-width="1.6"/><circle cx="232" cy="156.8" r="7" fill="#f2b632" stroke="#3a2213" stroke-width="1.6"/><circle cx="214" cy="148" r="7" fill="#f2b632" stroke="#3a2213" stroke-width="1.6"/><circle cx="226" cy="148" r="7" fill="#f2b632" stroke="#3a2213" stroke-width="1.6"/><ellipse cx="290" cy="164" rx="26" ry="10" fill="#c9a15a" stroke="#3a2213" stroke-width="2" transform="rotate(2 290 164)"/><circle cx="278" cy="156.8" r="7" fill="#f2b632" stroke="#3a2213" stroke-width="1.6"/><circle cx="290" cy="158" r="7" fill="#f2b632" stroke="#3a2213" stroke-width="1.6"/><circle cx="302" cy="156.8" r="7" fill="#f2b632" stroke="#3a2213" stroke-width="1.6"/><circle cx="284" cy="148" r="7" fill="#f2b632" stroke="#3a2213" stroke-width="1.6"/><circle cx="296" cy="148" r="7" fill="#f2b632" stroke="#3a2213" stroke-width="1.6"/><ellipse cx="360" cy="164" rx="26" ry="10" fill="#c9a15a" stroke="#3a2213" stroke-width="2" transform="rotate(2 360 164)"/><circle cx="348" cy="156.8" r="7" fill="#f2b632" stroke="#3a2213" stroke-width="1.6"/><circle cx="360" cy="158" r="7" fill="#f2b632" stroke="#3a2213" stroke-width="1.6"/><circle cx="372" cy="156.8" r="7" fill="#f2b632" stroke="#3a2213" stroke-width="1.6"/><circle cx="354" cy="148" r="7" fill="#f2b632" stroke="#3a2213" stroke-width="1.6"/><circle cx="366" cy="148" r="7" fill="#f2b632" stroke="#3a2213" stroke-width="1.6"/><ellipse cx="430" cy="164" rx="26" ry="10" fill="#c9a15a" stroke="#3a2213" stroke-width="2" transform="rotate(2 430 164)"/><circle cx="418" cy="156.8" r="7" fill="#8a4ac0" stroke="#3a2213" stroke-width="1.6"/><circle cx="430" cy="158" r="7" fill="#8a4ac0" stroke="#3a2213" stroke-width="1.6"/><circle cx="442" cy="156.8" r="7" fill="#8a4ac0" stroke="#3a2213" stroke-width="1.6"/><circle cx="424" cy="148" r="7" fill="#8a4ac0" stroke="#3a2213" stroke-width="1.6"/><circle cx="436" cy="148" r="7" fill="#8a4ac0" stroke="#3a2213" stroke-width="1.6"/><ellipse cx="500" cy="164" rx="26" ry="10" fill="#c9a15a" stroke="#3a2213" stroke-width="2" transform="rotate(2 500 164)"/><circle cx="488" cy="156.8" r="7" fill="#f39222" stroke="#3a2213" stroke-width="1.6"/><circle cx="500" cy="158" r="7" fill="#f39222" stroke="#3a2213" stroke-width="1.6"/><circle cx="512" cy="156.8" r="7" fill="#f39222" stroke="#3a2213" stroke-width="1.6"/><circle cx="494" cy="148" r="7" fill="#f39222" stroke="#3a2213" stroke-width="1.6"/><circle cx="506" cy="148" r="7" fill="#f39222" stroke="#3a2213" stroke-width="1.6"/><ellipse cx="570" cy="164" rx="26" ry="10" fill="#c9a15a" stroke="#3a2213" stroke-width="2" transform="rotate(2 570 164)"/><circle cx="558" cy="156.8" r="7" fill="#6aa83a" stroke="#3a2213" stroke-width="1.6"/><circle cx="570" cy="158" r="7" fill="#6aa83a" stroke="#3a2213" stroke-width="1.6"/><circle cx="582" cy="156.8" r="7" fill="#6aa83a" stroke="#3a2213" stroke-width="1.6"/><circle cx="564" cy="148" r="7" fill="#6aa83a" stroke="#3a2213" stroke-width="1.6"/><circle cx="576" cy="148" r="7" fill="#6aa83a" stroke="#3a2213" stroke-width="1.6"/><ellipse cx="640" cy="164" rx="26" ry="10" fill="#c9a15a" stroke="#3a2213" stroke-width="2" transform="rotate(2 640 164)"/><circle cx="628" cy="156.8" r="7" fill="#f2b632" stroke="#3a2213" stroke-width="1.6"/><circle cx="640" cy="158" r="7" fill="#f2b632" stroke="#3a2213" stroke-width="1.6"/><circle cx="652" cy="156.8" r="7" fill="#f2b632" stroke="#3a2213" stroke-width="1.6"/><circle cx="634" cy="148" r="7" fill="#f2b632" stroke="#3a2213" stroke-width="1.6"/><circle cx="646" cy="148" r="7" fill="#f2b632" stroke="#3a2213" stroke-width="1.6"/><ellipse cx="710" cy="164" rx="26" ry="10" fill="#c9a15a" stroke="#3a2213" stroke-width="2" transform="rotate(2 710 164)"/><circle cx="698" cy="156.8" r="7" fill="#e0342b" stroke="#3a2213" stroke-width="1.6"/><circle cx="710" cy="158" r="7" fill="#e0342b" stroke="#3a2213" stroke-width="1.6"/><circle cx="722" cy="156.8" r="7" fill="#e0342b" stroke="#3a2213" stroke-width="1.6"/><circle cx="704" cy="148" r="7" fill="#e0342b" stroke="#3a2213" stroke-width="1.6"/><circle cx="716" cy="148" r="7" fill="#e0342b" stroke="#3a2213" stroke-width="1.6"/><ellipse cx="780" cy="164" rx="26" ry="10" fill="#c9a15a" stroke="#3a2213" stroke-width="2" transform="rotate(2 780 164)"/><circle cx="768" cy="156.8" r="7" fill="#f39222" stroke="#3a2213" stroke-width="1.6"/><circle cx="780" cy="158" r="7" fill="#f39222" stroke="#3a2213" stroke-width="1.6"/><circle cx="792" cy="156.8" r="7" fill="#f39222" stroke="#3a2213" stroke-width="1.6"/><circle cx="774" cy="148" r="7" fill="#f39222" stroke="#3a2213" stroke-width="1.6"/><circle cx="786" cy="148" r="7" fill="#f39222" stroke="#3a2213" stroke-width="1.6"/><ellipse cx="850" cy="164" rx="26" ry="10" fill="#c9a15a" stroke="#3a2213" stroke-width="2" transform="rotate(2 850 164)"/><circle cx="838" cy="156.8" r="7" fill="#f39222" stroke="#3a2213" stroke-width="1.6"/><circle cx="850" cy="158" r="7" fill="#f39222" stroke="#3a2213" stroke-width="1.6"/><circle cx="862" cy="156.8" r="7" fill="#f39222" stroke="#3a2213" stroke-width="1.6"/><circle cx="844" cy="148" r="7" fill="#f39222" stroke="#3a2213" stroke-width="1.6"/><circle cx="856" cy="148" r="7" fill="#f39222" stroke="#3a2213" stroke-width="1.6"/><ellipse cx="920" cy="164" rx="26" ry="10" fill="#c9a15a" stroke="#3a2213" stroke-width="2" transform="rotate(2 920 164)"/><circle cx="908" cy="156.8" r="7" fill="#6aa83a" stroke="#3a2213" stroke-width="1.6"/><circle cx="920" cy="158" r="7" fill="#6aa83a" stroke="#3a2213" stroke-width="1.6"/><circle cx="932" cy="156.8" r="7" fill="#6aa83a" stroke="#3a2213" stroke-width="1.6"/><circle cx="914" cy="148" r="7" fill="#6aa83a" stroke="#3a2213" stroke-width="1.6"/><circle cx="926" cy="148" r="7" fill="#6aa83a" stroke="#3a2213" stroke-width="1.6"/><ellipse cx="990" cy="164" rx="26" ry="10" fill="#c9a15a" stroke="#3a2213" stroke-width="2" transform="rotate(2 990 164)"/><circle cx="978" cy="156.8" r="7" fill="#6aa83a" stroke="#3a2213" stroke-width="1.6"/><circle cx="990" cy="158" r="7" fill="#6aa83a" stroke="#3a2213" stroke-width="1.6"/><circle cx="1002" cy="156.8" r="7" fill="#6aa83a" stroke="#3a2213" stroke-width="1.6"/><circle cx="984" cy="148" r="7" fill="#6aa83a" stroke="#3a2213" stroke-width="1.6"/><circle cx="996" cy="148" r="7" fill="#6aa83a" stroke="#3a2213" stroke-width="1.6"/><ellipse cx="1060" cy="164" rx="26" ry="10" fill="#c9a15a" stroke="#3a2213" stroke-width="2" transform="rotate(2 1060 164)"/><circle cx="1048" cy="156.8" r="7" fill="#e0342b" stroke="#3a2213" stroke-width="1.6"/><circle cx="1060" cy="158" r="7" fill="#e0342b" stroke="#3a2213" stroke-width="1.6"/><circle cx="1072" cy="156.8" r="7" fill="#e0342b" stroke="#3a2213" stroke-width="1.6"/><circle cx="1054" cy="148" r="7" fill="#e0342b" stroke="#3a2213" stroke-width="1.6"/><circle cx="1066" cy="148" r="7" fill="#e0342b" stroke="#3a2213" stroke-width="1.6"/><rect x="-300" y="280" width="1400" height="12" fill="#9a6232" stroke="#3a2213" stroke-width="2"/><rect x="-300" y="292" width="1400" height="6" fill="#6e4526" stroke="none"/><ellipse cx="-270" cy="274" rx="26" ry="10" fill="#c9a15a" stroke="#3a2213" stroke-width="2" transform="rotate(2 -270 274)"/><circle cx="-282" cy="266.8" r="7" fill="#f2b632" stroke="#3a2213" stroke-width="1.6"/><circle cx="-270" cy="268" r="7" fill="#f2b632" stroke="#3a2213" stroke-width="1.6"/><circle cx="-258" cy="266.8" r="7" fill="#f2b632" stroke="#3a2213" stroke-width="1.6"/><circle cx="-276" cy="258" r="7" fill="#f2b632" stroke="#3a2213" stroke-width="1.6"/><circle cx="-264" cy="258" r="7" fill="#f2b632" stroke="#3a2213" stroke-width="1.6"/><ellipse cx="-200" cy="274" rx="26" ry="10" fill="#c9a15a" stroke="#3a2213" stroke-width="2" transform="rotate(2 -200 274)"/><circle cx="-212" cy="266.8" r="7" fill="#6aa83a" stroke="#3a2213" stroke-width="1.6"/><circle cx="-200" cy="268" r="7" fill="#6aa83a" stroke="#3a2213" stroke-width="1.6"/><circle cx="-188" cy="266.8" r="7" fill="#6aa83a" stroke="#3a2213" stroke-width="1.6"/><circle cx="-206" cy="258" r="7" fill="#6aa83a" stroke="#3a2213" stroke-width="1.6"/><circle cx="-194" cy="258" r="7" fill="#6aa83a" stroke="#3a2213" stroke-width="1.6"/><ellipse cx="-130" cy="274" rx="26" ry="10" fill="#c9a15a" stroke="#3a2213" stroke-width="2" transform="rotate(2 -130 274)"/><circle cx="-142" cy="266.8" r="7" fill="#e0342b" stroke="#3a2213" stroke-width="1.6"/><circle cx="-130" cy="268" r="7" fill="#e0342b" stroke="#3a2213" stroke-width="1.6"/><circle cx="-118" cy="266.8" r="7" fill="#e0342b" stroke="#3a2213" stroke-width="1.6"/><circle cx="-136" cy="258" r="7" fill="#e0342b" stroke="#3a2213" stroke-width="1.6"/><circle cx="-124" cy="258" r="7" fill="#e0342b" stroke="#3a2213" stroke-width="1.6"/><ellipse cx="-60" cy="274" rx="26" ry="10" fill="#c9a15a" stroke="#3a2213" stroke-width="2" transform="rotate(2 -60 274)"/><circle cx="-72" cy="266.8" r="7" fill="#f2b632" stroke="#3a2213" stroke-width="1.6"/><circle cx="-60" cy="268" r="7" fill="#f2b632" stroke="#3a2213" stroke-width="1.6"/><circle cx="-48" cy="266.8" r="7" fill="#f2b632" stroke="#3a2213" stroke-width="1.6"/><circle cx="-66" cy="258" r="7" fill="#f2b632" stroke="#3a2213" stroke-width="1.6"/><circle cx="-54" cy="258" r="7" fill="#f2b632" stroke="#3a2213" stroke-width="1.6"/><ellipse cx="10" cy="274" rx="26" ry="10" fill="#c9a15a" stroke="#3a2213" stroke-width="2" transform="rotate(2 10 274)"/><circle cx="-2" cy="266.8" r="7" fill="#b8466a" stroke="#3a2213" stroke-width="1.6"/><circle cx="10" cy="268" r="7" fill="#b8466a" stroke="#3a2213" stroke-width="1.6"/><circle cx="22" cy="266.8" r="7" fill="#b8466a" stroke="#3a2213" stroke-width="1.6"/><circle cx="4" cy="258" r="7" fill="#b8466a" stroke="#3a2213" stroke-width="1.6"/><circle cx="16" cy="258" r="7" fill="#b8466a" stroke="#3a2213" stroke-width="1.6"/><ellipse cx="80" cy="274" rx="26" ry="10" fill="#c9a15a" stroke="#3a2213" stroke-width="2" transform="rotate(2 80 274)"/><circle cx="68" cy="266.8" r="7" fill="#6aa83a" stroke="#3a2213" stroke-width="1.6"/><circle cx="80" cy="268" r="7" fill="#6aa83a" stroke="#3a2213" stroke-width="1.6"/><circle cx="92" cy="266.8" r="7" fill="#6aa83a" stroke="#3a2213" stroke-width="1.6"/><circle cx="74" cy="258" r="7" fill="#6aa83a" stroke="#3a2213" stroke-width="1.6"/><circle cx="86" cy="258" r="7" fill="#6aa83a" stroke="#3a2213" stroke-width="1.6"/><ellipse cx="150" cy="274" rx="26" ry="10" fill="#c9a15a" stroke="#3a2213" stroke-width="2" transform="rotate(2 150 274)"/><circle cx="138" cy="266.8" r="7" fill="#6aa83a" stroke="#3a2213" stroke-width="1.6"/><circle cx="150" cy="268" r="7" fill="#6aa83a" stroke="#3a2213" stroke-width="1.6"/><circle cx="162" cy="266.8" r="7" fill="#6aa83a" stroke="#3a2213" stroke-width="1.6"/><circle cx="144" cy="258" r="7" fill="#6aa83a" stroke="#3a2213" stroke-width="1.6"/><circle cx="156" cy="258" r="7" fill="#6aa83a" stroke="#3a2213" stroke-width="1.6"/><ellipse cx="220" cy="274" rx="26" ry="10" fill="#c9a15a" stroke="#3a2213" stroke-width="2" transform="rotate(2 220 274)"/><circle cx="208" cy="266.8" r="7" fill="#e0342b" stroke="#3a2213" stroke-width="1.6"/><circle cx="220" cy="268" r="7" fill="#e0342b" stroke="#3a2213" stroke-width="1.6"/><circle cx="232" cy="266.8" r="7" fill="#e0342b" stroke="#3a2213" stroke-width="1.6"/><circle cx="214" cy="258" r="7" fill="#e0342b" stroke="#3a2213" stroke-width="1.6"/><circle cx="226" cy="258" r="7" fill="#e0342b" stroke="#3a2213" stroke-width="1.6"/><ellipse cx="290" cy="274" rx="26" ry="10" fill="#c9a15a" stroke="#3a2213" stroke-width="2" transform="rotate(2 290 274)"/><circle cx="278" cy="266.8" r="7" fill="#e0342b" stroke="#3a2213" stroke-width="1.6"/><circle cx="290" cy="268" r="7" fill="#e0342b" stroke="#3a2213" stroke-width="1.6"/><circle cx="302" cy="266.8" r="7" fill="#e0342b" stroke="#3a2213" stroke-width="1.6"/><circle cx="284" cy="258" r="7" fill="#e0342b" stroke="#3a2213" stroke-width="1.6"/><circle cx="296" cy="258" r="7" fill="#e0342b" stroke="#3a2213" stroke-width="1.6"/><ellipse cx="360" cy="274" rx="26" ry="10" fill="#c9a15a" stroke="#3a2213" stroke-width="2" transform="rotate(2 360 274)"/><circle cx="348" cy="266.8" r="7" fill="#6aa83a" stroke="#3a2213" stroke-width="1.6"/><circle cx="360" cy="268" r="7" fill="#6aa83a" stroke="#3a2213" stroke-width="1.6"/><circle cx="372" cy="266.8" r="7" fill="#6aa83a" stroke="#3a2213" stroke-width="1.6"/><circle cx="354" cy="258" r="7" fill="#6aa83a" stroke="#3a2213" stroke-width="1.6"/><circle cx="366" cy="258" r="7" fill="#6aa83a" stroke="#3a2213" stroke-width="1.6"/><ellipse cx="430" cy="274" rx="26" ry="10" fill="#c9a15a" stroke="#3a2213" stroke-width="2" transform="rotate(2 430 274)"/><circle cx="418" cy="266.8" r="7" fill="#6aa83a" stroke="#3a2213" stroke-width="1.6"/><circle cx="430" cy="268" r="7" fill="#6aa83a" stroke="#3a2213" stroke-width="1.6"/><circle cx="442" cy="266.8" r="7" fill="#6aa83a" stroke="#3a2213" stroke-width="1.6"/><circle cx="424" cy="258" r="7" fill="#6aa83a" stroke="#3a2213" stroke-width="1.6"/><circle cx="436" cy="258" r="7" fill="#6aa83a" stroke="#3a2213" stroke-width="1.6"/><ellipse cx="500" cy="274" rx="26" ry="10" fill="#c9a15a" stroke="#3a2213" stroke-width="2" transform="rotate(2 500 274)"/><circle cx="488" cy="266.8" r="7" fill="#b8466a" stroke="#3a2213" stroke-width="1.6"/><circle cx="500" cy="268" r="7" fill="#b8466a" stroke="#3a2213" stroke-width="1.6"/><circle cx="512" cy="266.8" r="7" fill="#b8466a" stroke="#3a2213" stroke-width="1.6"/><circle cx="494" cy="258" r="7" fill="#b8466a" stroke="#3a2213" stroke-width="1.6"/><circle cx="506" cy="258" r="7" fill="#b8466a" stroke="#3a2213" stroke-width="1.6"/><ellipse cx="570" cy="274" rx="26" ry="10" fill="#c9a15a" stroke="#3a2213" stroke-width="2" transform="rotate(2 570 274)"/><circle cx="558" cy="266.8" r="7" fill="#b8466a" stroke="#3a2213" stroke-width="1.6"/><circle cx="570" cy="268" r="7" fill="#b8466a" stroke="#3a2213" stroke-width="1.6"/><circle cx="582" cy="266.8" r="7" fill="#b8466a" stroke="#3a2213" stroke-width="1.6"/><circle cx="564" cy="258" r="7" fill="#b8466a" stroke="#3a2213" stroke-width="1.6"/><circle cx="576" cy="258" r="7" fill="#b8466a" stroke="#3a2213" stroke-width="1.6"/><ellipse cx="640" cy="274" rx="26" ry="10" fill="#c9a15a" stroke="#3a2213" stroke-width="2" transform="rotate(2 640 274)"/><circle cx="628" cy="266.8" r="7" fill="#6aa83a" stroke="#3a2213" stroke-width="1.6"/><circle cx="640" cy="268" r="7" fill="#6aa83a" stroke="#3a2213" stroke-width="1.6"/><circle cx="652" cy="266.8" r="7" fill="#6aa83a" stroke="#3a2213" stroke-width="1.6"/><circle cx="634" cy="258" r="7" fill="#6aa83a" stroke="#3a2213" stroke-width="1.6"/><circle cx="646" cy="258" r="7" fill="#6aa83a" stroke="#3a2213" stroke-width="1.6"/><ellipse cx="710" cy="274" rx="26" ry="10" fill="#c9a15a" stroke="#3a2213" stroke-width="2" transform="rotate(2 710 274)"/><circle cx="698" cy="266.8" r="7" fill="#f2b632" stroke="#3a2213" stroke-width="1.6"/><circle cx="710" cy="268" r="7" fill="#f2b632" stroke="#3a2213" stroke-width="1.6"/><circle cx="722" cy="266.8" r="7" fill="#f2b632" stroke="#3a2213" stroke-width="1.6"/><circle cx="704" cy="258" r="7" fill="#f2b632" stroke="#3a2213" stroke-width="1.6"/><circle cx="716" cy="258" r="7" fill="#f2b632" stroke="#3a2213" stroke-width="1.6"/><ellipse cx="780" cy="274" rx="26" ry="10" fill="#c9a15a" stroke="#3a2213" stroke-width="2" transform="rotate(2 780 274)"/><circle cx="768" cy="266.8" r="7" fill="#f39222" stroke="#3a2213" stroke-width="1.6"/><circle cx="780" cy="268" r="7" fill="#f39222" stroke="#3a2213" stroke-width="1.6"/><circle cx="792" cy="266.8" r="7" fill="#f39222" stroke="#3a2213" stroke-width="1.6"/><circle cx="774" cy="258" r="7" fill="#f39222" stroke="#3a2213" stroke-width="1.6"/><circle cx="786" cy="258" r="7" fill="#f39222" stroke="#3a2213" stroke-width="1.6"/><ellipse cx="850" cy="274" rx="26" ry="10" fill="#c9a15a" stroke="#3a2213" stroke-width="2" transform="rotate(2 850 274)"/><circle cx="838" cy="266.8" r="7" fill="#6aa83a" stroke="#3a2213" stroke-width="1.6"/><circle cx="850" cy="268" r="7" fill="#6aa83a" stroke="#3a2213" stroke-width="1.6"/><circle cx="862" cy="266.8" r="7" fill="#6aa83a" stroke="#3a2213" stroke-width="1.6"/><circle cx="844" cy="258" r="7" fill="#6aa83a" stroke="#3a2213" stroke-width="1.6"/><circle cx="856" cy="258" r="7" fill="#6aa83a" stroke="#3a2213" stroke-width="1.6"/><ellipse cx="920" cy="274" rx="26" ry="10" fill="#c9a15a" stroke="#3a2213" stroke-width="2" transform="rotate(2 920 274)"/><circle cx="908" cy="266.8" r="7" fill="#b8466a" stroke="#3a2213" stroke-width="1.6"/><circle cx="920" cy="268" r="7" fill="#b8466a" stroke="#3a2213" stroke-width="1.6"/><circle cx="932" cy="266.8" r="7" fill="#b8466a" stroke="#3a2213" stroke-width="1.6"/><circle cx="914" cy="258" r="7" fill="#b8466a" stroke="#3a2213" stroke-width="1.6"/><circle cx="926" cy="258" r="7" fill="#b8466a" stroke="#3a2213" stroke-width="1.6"/><ellipse cx="990" cy="274" rx="26" ry="10" fill="#c9a15a" stroke="#3a2213" stroke-width="2" transform="rotate(2 990 274)"/><circle cx="978" cy="266.8" r="7" fill="#8a4ac0" stroke="#3a2213" stroke-width="1.6"/><circle cx="990" cy="268" r="7" fill="#8a4ac0" stroke="#3a2213" stroke-width="1.6"/><circle cx="1002" cy="266.8" r="7" fill="#8a4ac0" stroke="#3a2213" stroke-width="1.6"/><circle cx="984" cy="258" r="7" fill="#8a4ac0" stroke="#3a2213" stroke-width="1.6"/><circle cx="996" cy="258" r="7" fill="#8a4ac0" stroke="#3a2213" stroke-width="1.6"/><ellipse cx="1060" cy="274" rx="26" ry="10" fill="#c9a15a" stroke="#3a2213" stroke-width="2" transform="rotate(2 1060 274)"/><circle cx="1048" cy="266.8" r="7" fill="#f39222" stroke="#3a2213" stroke-width="1.6"/><circle cx="1060" cy="268" r="7" fill="#f39222" stroke="#3a2213" stroke-width="1.6"/><circle cx="1072" cy="266.8" r="7" fill="#f39222" stroke="#3a2213" stroke-width="1.6"/><circle cx="1054" cy="258" r="7" fill="#f39222" stroke="#3a2213" stroke-width="1.6"/><circle cx="1066" cy="258" r="7" fill="#f39222" stroke="#3a2213" stroke-width="1.6"/><path d="M-300 60Q400 90 1100 60" fill="none" stroke="#3a2213" stroke-width="1.6"/><path d="M-260 72v14" fill="none" stroke="#3a2213" stroke-width="1.4"/><ellipse cx="-260" cy="98" rx="10" ry="13" fill="#e2453a" stroke="#3a2213" stroke-width="2" transform="rotate(2 -260 98)"/><path d="M-270 98H-250" fill="none" stroke="#f2c14e" stroke-width="1.6"/><rect x="-265" y="84" width="10" height="3" fill="#f2c14e" stroke="#3a2213" stroke-width="1.2"/><path d="M-170 72v14" fill="none" stroke="#3a2213" stroke-width="1.4"/><ellipse cx="-170" cy="98" rx="10" ry="13" fill="#e2453a" stroke="#3a2213" stroke-width="2" transform="rotate(2 -170 98)"/><path d="M-180 98H-160" fill="none" stroke="#f2c14e" stroke-width="1.6"/><rect x="-175" y="84" width="10" height="3" fill="#f2c14e" stroke="#3a2213" stroke-width="1.2"/><path d="M-80 72v14" fill="none" stroke="#3a2213" stroke-width="1.4"/><ellipse cx="-80" cy="98" rx="10" ry="13" fill="#e2453a" stroke="#3a2213" stroke-width="2" transform="rotate(2 -80 98)"/><path d="M-90 98H-70" fill="none" stroke="#f2c14e" stroke-width="1.6"/><rect x="-85" y="84" width="10" height="3" fill="#f2c14e" stroke="#3a2213" stroke-width="1.2"/><path d="M10 72v14" fill="none" stroke="#3a2213" stroke-width="1.4"/><ellipse cx="10" cy="98" rx="10" ry="13" fill="#e2453a" stroke="#3a2213" stroke-width="2" transform="rotate(2 10 98)"/><path d="M0 98H20" fill="none" stroke="#f2c14e" stroke-width="1.6"/><rect x="5" y="84" width="10" height="3" fill="#f2c14e" stroke="#3a2213" stroke-width="1.2"/><path d="M100 72v14" fill="none" stroke="#3a2213" stroke-width="1.4"/><ellipse cx="100" cy="98" rx="10" ry="13" fill="#e2453a" stroke="#3a2213" stroke-width="2" transform="rotate(2 100 98)"/><path d="M90 98H110" fill="none" stroke="#f2c14e" stroke-width="1.6"/><rect x="95" y="84" width="10" height="3" fill="#f2c14e" stroke="#3a2213" stroke-width="1.2"/><path d="M190 72v14" fill="none" stroke="#3a2213" stroke-width="1.4"/><ellipse cx="190" cy="98" rx="10" ry="13" fill="#e2453a" stroke="#3a2213" stroke-width="2" transform="rotate(2 190 98)"/><path d="M180 98H200" fill="none" stroke="#f2c14e" stroke-width="1.6"/><rect x="185" y="84" width="10" height="3" fill="#f2c14e" stroke="#3a2213" stroke-width="1.2"/><path d="M280 72v14" fill="none" stroke="#3a2213" stroke-width="1.4"/><ellipse cx="280" cy="98" rx="10" ry="13" fill="#e2453a" stroke="#3a2213" stroke-width="2" transform="rotate(2 280 98)"/><path d="M270 98H290" fill="none" stroke="#f2c14e" stroke-width="1.6"/><rect x="275" y="84" width="10" height="3" fill="#f2c14e" stroke="#3a2213" stroke-width="1.2"/><path d="M370 72v14" fill="none" stroke="#3a2213" stroke-width="1.4"/><ellipse cx="370" cy="98" rx="10" ry="13" fill="#e2453a" stroke="#3a2213" stroke-width="2" transform="rotate(2 370 98)"/><path d="M360 98H380" fill="none" stroke="#f2c14e" stroke-width="1.6"/><rect x="365" y="84" width="10" height="3" fill="#f2c14e" stroke="#3a2213" stroke-width="1.2"/><path d="M460 72v14" fill="none" stroke="#3a2213" stroke-width="1.4"/><ellipse cx="460" cy="98" rx="10" ry="13" fill="#e2453a" stroke="#3a2213" stroke-width="2" transform="rotate(2 460 98)"/><path d="M450 98H470" fill="none" stroke="#f2c14e" stroke-width="1.6"/><rect x="455" y="84" width="10" height="3" fill="#f2c14e" stroke="#3a2213" stroke-width="1.2"/><path d="M550 72v14" fill="none" stroke="#3a2213" stroke-width="1.4"/><ellipse cx="550" cy="98" rx="10" ry="13" fill="#e2453a" stroke="#3a2213" stroke-width="2" transform="rotate(2 550 98)"/><path d="M540 98H560" fill="none" stroke="#f2c14e" stroke-width="1.6"/><rect x="545" y="84" width="10" height="3" fill="#f2c14e" stroke="#3a2213" stroke-width="1.2"/><path d="M640 72v14" fill="none" stroke="#3a2213" stroke-width="1.4"/><ellipse cx="640" cy="98" rx="10" ry="13" fill="#e2453a" stroke="#3a2213" stroke-width="2" transform="rotate(2 640 98)"/><path d="M630 98H650" fill="none" stroke="#f2c14e" stroke-width="1.6"/><rect x="635" y="84" width="10" height="3" fill="#f2c14e" stroke="#3a2213" stroke-width="1.2"/><path d="M730 72v14" fill="none" stroke="#3a2213" stroke-width="1.4"/><ellipse cx="730" cy="98" rx="10" ry="13" fill="#e2453a" stroke="#3a2213" stroke-width="2" transform="rotate(2 730 98)"/><path d="M720 98H740" fill="none" stroke="#f2c14e" stroke-width="1.6"/><rect x="725" y="84" width="10" height="3" fill="#f2c14e" stroke="#3a2213" stroke-width="1.2"/><path d="M820 72v14" fill="none" stroke="#3a2213" stroke-width="1.4"/><ellipse cx="820" cy="98" rx="10" ry="13" fill="#e2453a" stroke="#3a2213" stroke-width="2" transform="rotate(2 820 98)"/><path d="M810 98H830" fill="none" stroke="#f2c14e" stroke-width="1.6"/><rect x="815" y="84" width="10" height="3" fill="#f2c14e" stroke="#3a2213" stroke-width="1.2"/><path d="M910 72v14" fill="none" stroke="#3a2213" stroke-width="1.4"/><ellipse cx="910" cy="98" rx="10" ry="13" fill="#e2453a" stroke="#3a2213" stroke-width="2" transform="rotate(2 910 98)"/><path d="M900 98H920" fill="none" stroke="#f2c14e" stroke-width="1.6"/><rect x="905" y="84" width="10" height="3" fill="#f2c14e" stroke="#3a2213" stroke-width="1.2"/><path d="M1000 72v14" fill="none" stroke="#3a2213" stroke-width="1.4"/><ellipse cx="1000" cy="98" rx="10" ry="13" fill="#e2453a" stroke="#3a2213" stroke-width="2" transform="rotate(2 1000 98)"/><path d="M990 98H1010" fill="none" stroke="#f2c14e" stroke-width="1.6"/><rect x="995" y="84" width="10" height="3" fill="#f2c14e" stroke="#3a2213" stroke-width="1.2"/><path d="M1090 72v14" fill="none" stroke="#3a2213" stroke-width="1.4"/><ellipse cx="1090" cy="98" rx="10" ry="13" fill="#e2453a" stroke="#3a2213" stroke-width="2" transform="rotate(2 1090 98)"/><path d="M1080 98H1100" fill="none" stroke="#f2c14e" stroke-width="1.6"/><rect x="1085" y="84" width="10" height="3" fill="#f2c14e" stroke="#3a2213" stroke-width="1.2"/><path d="M-215 120v10" fill="none" stroke="#3a2213" stroke-width="1.2"/><path d="M-225 140Q-227 147 -217 146Z" fill="#f2d23a" stroke="#3a2213" stroke-width="1.4"/><path d="M-205 140Q-203 147 -213 146Z" fill="#f2d23a" stroke="#3a2213" stroke-width="1.4"/><path d="M-225 146Q-227 153 -217 152Z" fill="#f2d23a" stroke="#3a2213" stroke-width="1.4"/><path d="M-205 146Q-203 153 -213 152Z" fill="#f2d23a" stroke="#3a2213" stroke-width="1.4"/><path d="M-225 152Q-227 159 -217 158Z" fill="#f2d23a" stroke="#3a2213" stroke-width="1.4"/><path d="M-205 152Q-203 159 -213 158Z" fill="#f2d23a" stroke="#3a2213" stroke-width="1.4"/><path d="M-225 158Q-227 165 -217 164Z" fill="#f2d23a" stroke="#3a2213" stroke-width="1.4"/><path d="M-205 158Q-203 165 -213 164Z" fill="#f2d23a" stroke="#3a2213" stroke-width="1.4"/><path d="M-35 120v10" fill="none" stroke="#3a2213" stroke-width="1.2"/><path d="M-45 140Q-47 147 -37 146Z" fill="#f2d23a" stroke="#3a2213" stroke-width="1.4"/><path d="M-25 140Q-23 147 -33 146Z" fill="#f2d23a" stroke="#3a2213" stroke-width="1.4"/><path d="M-45 146Q-47 153 -37 152Z" fill="#f2d23a" stroke="#3a2213" stroke-width="1.4"/><path d="M-25 146Q-23 153 -33 152Z" fill="#f2d23a" stroke="#3a2213" stroke-width="1.4"/><path d="M-45 152Q-47 159 -37 158Z" fill="#f2d23a" stroke="#3a2213" stroke-width="1.4"/><path d="M-25 152Q-23 159 -33 158Z" fill="#f2d23a" stroke="#3a2213" stroke-width="1.4"/><path d="M-45 158Q-47 165 -37 164Z" fill="#f2d23a" stroke="#3a2213" stroke-width="1.4"/><path d="M-25 158Q-23 165 -33 164Z" fill="#f2d23a" stroke="#3a2213" stroke-width="1.4"/><path d="M145 120v10" fill="none" stroke="#3a2213" stroke-width="1.2"/><path d="M135 140Q133 147 143 146Z" fill="#f2d23a" stroke="#3a2213" stroke-width="1.4"/><path d="M155 140Q157 147 147 146Z" fill="#f2d23a" stroke="#3a2213" stroke-width="1.4"/><path d="M135 146Q133 153 143 152Z" fill="#f2d23a" stroke="#3a2213" stroke-width="1.4"/><path d="M155 146Q157 153 147 152Z" fill="#f2d23a" stroke="#3a2213" stroke-width="1.4"/><path d="M135 152Q133 159 143 158Z" fill="#f2d23a" stroke="#3a2213" stroke-width="1.4"/><path d="M155 152Q157 159 147 158Z" fill="#f2d23a" stroke="#3a2213" stroke-width="1.4"/><path d="M135 158Q133 165 143 164Z" fill="#f2d23a" stroke="#3a2213" stroke-width="1.4"/><path d="M155 158Q157 165 147 164Z" fill="#f2d23a" stroke="#3a2213" stroke-width="1.4"/><path d="M325 120v10" fill="none" stroke="#3a2213" stroke-width="1.2"/><path d="M315 140Q313 147 323 146Z" fill="#f2d23a" stroke="#3a2213" stroke-width="1.4"/><path d="M335 140Q337 147 327 146Z" fill="#f2d23a" stroke="#3a2213" stroke-width="1.4"/><path d="M315 146Q313 153 323 152Z" fill="#f2d23a" stroke="#3a2213" stroke-width="1.4"/><path d="M335 146Q337 153 327 152Z" fill="#f2d23a" stroke="#3a2213" stroke-width="1.4"/><path d="M315 152Q313 159 323 158Z" fill="#f2d23a" stroke="#3a2213" stroke-width="1.4"/><path d="M335 152Q337 159 327 158Z" fill="#f2d23a" stroke="#3a2213" stroke-width="1.4"/><path d="M315 158Q313 165 323 164Z" fill="#f2d23a" stroke="#3a2213" stroke-width="1.4"/><path d="M335 158Q337 165 327 164Z" fill="#f2d23a" stroke="#3a2213" stroke-width="1.4"/><path d="M505 120v10" fill="none" stroke="#3a2213" stroke-width="1.2"/><path d="M495 140Q493 147 503 146Z" fill="#f2d23a" stroke="#3a2213" stroke-width="1.4"/><path d="M515 140Q517 147 507 146Z" fill="#f2d23a" stroke="#3a2213" stroke-width="1.4"/><path d="M495 146Q493 153 503 152Z" fill="#f2d23a" stroke="#3a2213" stroke-width="1.4"/><path d="M515 146Q517 153 507 152Z" fill="#f2d23a" stroke="#3a2213" stroke-width="1.4"/><path d="M495 152Q493 159 503 158Z" fill="#f2d23a" stroke="#3a2213" stroke-width="1.4"/><path d="M515 152Q517 159 507 158Z" fill="#f2d23a" stroke="#3a2213" stroke-width="1.4"/><path d="M495 158Q493 165 503 164Z" fill="#f2d23a" stroke="#3a2213" stroke-width="1.4"/><path d="M515 158Q517 165 507 164Z" fill="#f2d23a" stroke="#3a2213" stroke-width="1.4"/><path d="M685 120v10" fill="none" stroke="#3a2213" stroke-width="1.2"/><path d="M675 140Q673 147 683 146Z" fill="#f2d23a" stroke="#3a2213" stroke-width="1.4"/><path d="M695 140Q697 147 687 146Z" fill="#f2d23a" stroke="#3a2213" stroke-width="1.4"/><path d="M675 146Q673 153 683 152Z" fill="#f2d23a" stroke="#3a2213" stroke-width="1.4"/><path d="M695 146Q697 153 687 152Z" fill="#f2d23a" stroke="#3a2213" stroke-width="1.4"/><path d="M675 152Q673 159 683 158Z" fill="#f2d23a" stroke="#3a2213" stroke-width="1.4"/><path d="M695 152Q697 159 687 158Z" fill="#f2d23a" stroke="#3a2213" stroke-width="1.4"/><path d="M675 158Q673 165 683 164Z" fill="#f2d23a" stroke="#3a2213" stroke-width="1.4"/><path d="M695 158Q697 165 687 164Z" fill="#f2d23a" stroke="#3a2213" stroke-width="1.4"/><path d="M865 120v10" fill="none" stroke="#3a2213" stroke-width="1.2"/><path d="M855 140Q853 147 863 146Z" fill="#f2d23a" stroke="#3a2213" stroke-width="1.4"/><path d="M875 140Q877 147 867 146Z" fill="#f2d23a" stroke="#3a2213" stroke-width="1.4"/><path d="M855 146Q853 153 863 152Z" fill="#f2d23a" stroke="#3a2213" stroke-width="1.4"/><path d="M875 146Q877 153 867 152Z" fill="#f2d23a" stroke="#3a2213" stroke-width="1.4"/><path d="M855 152Q853 159 863 158Z" fill="#f2d23a" stroke="#3a2213" stroke-width="1.4"/><path d="M875 152Q877 159 867 158Z" fill="#f2d23a" stroke="#3a2213" stroke-width="1.4"/><path d="M855 158Q853 165 863 164Z" fill="#f2d23a" stroke="#3a2213" stroke-width="1.4"/><path d="M875 158Q877 165 867 164Z" fill="#f2d23a" stroke="#3a2213" stroke-width="1.4"/><path d="M1045 120v10" fill="none" stroke="#3a2213" stroke-width="1.2"/><path d="M1035 140Q1033 147 1043 146Z" fill="#f2d23a" stroke="#3a2213" stroke-width="1.4"/><path d="M1055 140Q1057 147 1047 146Z" fill="#f2d23a" stroke="#3a2213" stroke-width="1.4"/><path d="M1035 146Q1033 153 1043 152Z" fill="#f2d23a" stroke="#3a2213" stroke-width="1.4"/><path d="M1055 146Q1057 153 1047 152Z" fill="#f2d23a" stroke="#3a2213" stroke-width="1.4"/><path d="M1035 152Q1033 159 1043 158Z" fill="#f2d23a" stroke="#3a2213" stroke-width="1.4"/><path d="M1055 152Q1057 159 1047 158Z" fill="#f2d23a" stroke="#3a2213" stroke-width="1.4"/><path d="M1035 158Q1033 165 1043 164Z" fill="#f2d23a" stroke="#3a2213" stroke-width="1.4"/><path d="M1055 158Q1057 165 1047 164Z" fill="#f2d23a" stroke="#3a2213" stroke-width="1.4"/><rect x="-300" y="430" width="1400" height="170" fill="#8a5a33" stroke="none"/><path d="M-300 430H1100M-300 480H1100M-300 540H1100" fill="none" stroke="#6e4526" stroke-width="2.4"/><path d="M-300 430L-475.0 600M-190 430L-337.5 600M-80 430L-200.0 600M30 430L-62.5 600M140 430L75.0 600M250 430L212.5 600M360 430L350.0 600M470 430L487.5 600M580 430L625.0 600M690 430L762.5 600M800 430L900.0 600M910 430L1037.5 600M1020 430L1175.0 600" fill="none" stroke="#6e4526" stroke-width="2"/><path d="M-300 0H-260V36A20.0 12 0 0 1 -300 36Z" fill="#e2453a" stroke="#3a2213" stroke-width="2"/><path d="M-260 0H-220V36A20.0 12 0 0 1 -260 36Z" fill="#fff4e0" stroke="#3a2213" stroke-width="2"/><path d="M-220 0H-180V36A20.0 12 0 0 1 -220 36Z" fill="#e2453a" stroke="#3a2213" stroke-width="2"/><path d="M-180 0H-140V36A20.0 12 0 0 1 -180 36Z" fill="#fff4e0" stroke="#3a2213" stroke-width="2"/><path d="M-140 0H-100V36A20.0 12 0 0 1 -140 36Z" fill="#e2453a" stroke="#3a2213" stroke-width="2"/><path d="M-100 0H-60V36A20.0 12 0 0 1 -100 36Z" fill="#fff4e0" stroke="#3a2213" stroke-width="2"/><path d="M-60 0H-20V36A20.0 12 0 0 1 -60 36Z" fill="#e2453a" stroke="#3a2213" stroke-width="2"/><path d="M-20 0H20V36A20.0 12 0 0 1 -20 36Z" fill="#fff4e0" stroke="#3a2213" stroke-width="2"/><path d="M20 0H60V36A20.0 12 0 0 1 20 36Z" fill="#e2453a" stroke="#3a2213" stroke-width="2"/><path d="M60 0H100V36A20.0 12 0 0 1 60 36Z" fill="#fff4e0" stroke="#3a2213" stroke-width="2"/><path d="M100 0H140V36A20.0 12 0 0 1 100 36Z" fill="#e2453a" stroke="#3a2213" stroke-width="2"/><path d="M140 0H180V36A20.0 12 0 0 1 140 36Z" fill="#fff4e0" stroke="#3a2213" stroke-width="2"/><path d="M180 0H220V36A20.0 12 0 0 1 180 36Z" fill="#e2453a" stroke="#3a2213" stroke-width="2"/><path d="M220 0H260V36A20.0 12 0 0 1 220 36Z" fill="#fff4e0" stroke="#3a2213" stroke-width="2"/><path d="M260 0H300V36A20.0 12 0 0 1 260 36Z" fill="#e2453a" stroke="#3a2213" stroke-width="2"/><path d="M300 0H340V36A20.0 12 0 0 1 300 36Z" fill="#fff4e0" stroke="#3a2213" stroke-width="2"/><path d="M340 0H380V36A20.0 12 0 0 1 340 36Z" fill="#e2453a" stroke="#3a2213" stroke-width="2"/><path d="M380 0H420V36A20.0 12 0 0 1 380 36Z" fill="#fff4e0" stroke="#3a2213" stroke-width="2"/><path d="M420 0H460V36A20.0 12 0 0 1 420 36Z" fill="#e2453a" stroke="#3a2213" stroke-width="2"/><path d="M460 0H500V36A20.0 12 0 0 1 460 36Z" fill="#fff4e0" stroke="#3a2213" stroke-width="2"/><path d="M500 0H540V36A20.0 12 0 0 1 500 36Z" fill="#e2453a" stroke="#3a2213" stroke-width="2"/><path d="M540 0H580V36A20.0 12 0 0 1 540 36Z" fill="#fff4e0" stroke="#3a2213" stroke-width="2"/><path d="M580 0H620V36A20.0 12 0 0 1 580 36Z" fill="#e2453a" stroke="#3a2213" stroke-width="2"/><path d="M620 0H660V36A20.0 12 0 0 1 620 36Z" fill="#fff4e0" stroke="#3a2213" stroke-width="2"/><path d="M660 0H700V36A20.0 12 0 0 1 660 36Z" fill="#e2453a" stroke="#3a2213" stroke-width="2"/><path d="M700 0H740V36A20.0 12 0 0 1 700 36Z" fill="#fff4e0" stroke="#3a2213" stroke-width="2"/><path d="M740 0H780V36A20.0 12 0 0 1 740 36Z" fill="#e2453a" stroke="#3a2213" stroke-width="2"/><path d="M780 0H820V36A20.0 12 0 0 1 780 36Z" fill="#fff4e0" stroke="#3a2213" stroke-width="2"/><path d="M820 0H860V36A20.0 12 0 0 1 820 36Z" fill="#e2453a" stroke="#3a2213" stroke-width="2"/><path d="M860 0H900V36A20.0 12 0 0 1 860 36Z" fill="#fff4e0" stroke="#3a2213" stroke-width="2"/><path d="M900 0H940V36A20.0 12 0 0 1 900 36Z" fill="#e2453a" stroke="#3a2213" stroke-width="2"/><path d="M940 0H980V36A20.0 12 0 0 1 940 36Z" fill="#fff4e0" stroke="#3a2213" stroke-width="2"/><path d="M980 0H1020V36A20.0 12 0 0 1 980 36Z" fill="#e2453a" stroke="#3a2213" stroke-width="2"/><path d="M1020 0H1060V36A20.0 12 0 0 1 1020 36Z" fill="#fff4e0" stroke="#3a2213" stroke-width="2"/><path d="M1060 0H1100V36A20.0 12 0 0 1 1060 36Z" fill="#e2453a" stroke="#3a2213" stroke-width="2"/></g>
</g>
</svg>
