<svg xmlns="http://www.w3.org/2000/svg" viewBox="0 0 78 68" width="78" height="68">
<!-- animal.buffalo_head · exported from the 3D model. Anchor = neck pivot -->
<g transform="translate(9 56)"><path d="M50.9 -45.2L51.4 -46.2L51.8 -46.6L52.6 -46.7L53.5 -46.6L53.8 -46.2L54.3 -45.2L53.8 -44.3L53.5 -43.9L52.6 -43.7L51.8 -43.9L51.4 -44.3Z" fill="#3a2213" stroke="#3a2213" stroke-width="3" stroke-linejoin="round"/><path d="M51.2 -45.8L51.8 -46.9L52.2 -47.4L53.1 -47.6L54.1 -47.4L54.5 -46.9L55 -45.8L54.5 -44.7L54.1 -44.3L53.1 -44.1L52.2 -44.3L51.8 -44.7Z" fill="#3a2213" stroke="#3a2213" stroke-width="3" stroke-linejoin="round"/><path d="M51.4 -46.4L52.1 -47.6L52.5 -48.1L53.6 -48.4L54.7 -48.1L55.1 -47.6L55.8 -46.4L55.1 -45.2L54.7 -44.6L53.6 -44.4L52.5 -44.6L52.1 -45.2Z" fill="#3a2213" stroke="#3a2213" stroke-width="3" stroke-linejoin="round"/><path d="M51.7 -47L52.4 -48.3L52.9 -48.9L54.1 -49.2L55.3 -48.9L55.8 -48.3L56.5 -47L55.8 -45.6L55.3 -45L54.1 -44.8L52.9 -45L52.4 -45.6Z" fill="#3a2213" stroke="#3a2213" stroke-width="3" stroke-linejoin="round"/><path d="M51.9 -47.5L52.7 -49L53.3 -49.7L54.6 -50L55.9 -49.7L56.5 -49L57.2 -47.5L56.5 -46.1L55.9 -45.4L54.6 -45.1L53.3 -45.4L52.7 -46.1Z" fill="#3a2213" stroke="#3a2213" stroke-width="3" stroke-linejoin="round"/><path d="M52.2 -47.6L53.1 -49.2L53.7 -49.9L55.1 -50.2L56.5 -49.9L57.1 -49.2L57.9 -47.6L57.1 -46L56.5 -45.3L55.1 -45L53.7 -45.3L53.1 -46Z" fill="#3a2213" stroke="#3a2213" stroke-width="3" stroke-linejoin="round"/><path d="M52.5 -47.7L53.4 -49.4L54 -50.2L55.6 -50.5L57.1 -50.2L57.7 -49.4L58.6 -47.7L57.7 -46L57.1 -45.2L55.6 -44.9L54 -45.2L53.4 -46Z" fill="#3a2213" stroke="#3a2213" stroke-width="3" stroke-linejoin="round"/><path d="M52.8 -47.8L53.7 -49.6L54.4 -50.4L56.1 -50.8L57.7 -50.4L58.4 -49.6L59.3 -47.8L58.4 -46L57.7 -45.2L56.1 -44.8L54.4 -45.2L53.7 -46Z" fill="#3a2213" stroke="#3a2213" stroke-width="3" stroke-linejoin="round"/><path d="M53.1 -47.9L54.1 -49.8L54.8 -50.7L56.6 -51.1L58.3 -50.7L59 -49.8L60 -47.9L59 -45.9L58.3 -45.1L56.6 -44.7L54.8 -45.1L54.1 -45.9Z" fill="#3a2213" stroke="#3a2213" stroke-width="3" stroke-linejoin="round"/><path d="M53.1 -46.5L54.2 -48.6L55 -49.5L56.8 -49.9L58.6 -49.5L59.4 -48.6L60.4 -46.5L59.4 -44.5L58.6 -43.6L56.8 -43.2L55 -43.6L54.2 -44.5Z" fill="#3a2213" stroke="#3a2213" stroke-width="3" stroke-linejoin="round"/><path d="M53.2 -45.2L54.3 -47.3L55.1 -48.3L57 -48.7L59 -48.3L59.7 -47.3L60.9 -45.2L59.7 -43L59 -42.1L57 -41.7L55.1 -42.1L54.3 -43Z" fill="#3a2213" stroke="#3a2213" stroke-width="3" stroke-linejoin="round"/><path d="M53.3 -43.8L54.5 -46.1L55.3 -47.1L57.3 -47.5L59.3 -47.1L60.1 -46.1L61.3 -43.8L60.1 -41.6L59.3 -40.6L57.3 -40.2L55.3 -40.6L54.5 -41.6Z" fill="#3a2213" stroke="#3a2213" stroke-width="3" stroke-linejoin="round"/><path d="M53.4 -42.5L54.6 -44.8L55.4 -45.9L57.5 -46.3L59.6 -45.9L60.5 -44.8L61.7 -42.5L60.5 -40.2L59.6 -39.1L57.5 -38.7L55.4 -39.1L54.6 -40.2Z" fill="#3a2213" stroke="#3a2213" stroke-width="3" stroke-linejoin="round"/><path d="M52.7 -40.5L54 -42.9L54.9 -43.9L57 -44.4L59.2 -43.9L60.1 -42.9L61.4 -40.5L60.1 -38L59.2 -37L57 -36.5L54.9 -37L54 -38Z" fill="#3a2213" stroke="#3a2213" stroke-width="3" stroke-linejoin="round"/><path d="M52.1 -38.4L53.4 -40.9L54.3 -42L56.6 -42.5L58.8 -42L59.7 -40.9L61 -38.4L59.7 -35.9L58.8 -34.8L56.6 -34.4L54.3 -34.8L53.4 -35.9Z" fill="#3a2213" stroke="#3a2213" stroke-width="3" stroke-linejoin="round"/><path d="M51.5 -36.4L52.8 -39L53.8 -40.1L56.1 -40.6L58.4 -40.1L59.3 -39L60.6 -36.4L59.3 -33.8L58.4 -32.7L56.1 -32.2L53.8 -32.7L52.8 -33.8Z" fill="#3a2213" stroke="#3a2213" stroke-width="3" stroke-linejoin="round"/><path d="M50.8 -34.4L52.2 -37L53.2 -38.2L55.6 -38.7L57.9 -38.2L58.9 -37L60.3 -34.4L58.9 -31.7L57.9 -30.6L55.6 -30.1L53.2 -30.6L52.2 -31.7Z" fill="#3a2213" stroke="#3a2213" stroke-width="3" stroke-linejoin="round"/><path d="M49.5 -32.5L50.9 -35.2L51.9 -36.4L54.3 -36.9L56.8 -36.4L57.8 -35.2L59.2 -32.5L57.8 -29.7L56.8 -28.5L54.3 -28L51.9 -28.5L50.9 -29.7Z" fill="#3a2213" stroke="#3a2213" stroke-width="3" stroke-linejoin="round"/><path d="M46.5 -23.3L46.7 -24.3L47.2 -25.3L48.2 -26.4L49.2 -27.2L50.5 -28L52.2 -28.6L53.8 -29L55.4 -29.1L56.2 -29L57.6 -28.6L58.3 -27.9L58.7 -27.1L58.5 -26.1L58.1 -25.1L57 -24L56 -23.3L54.7 -22.5L53.1 -21.8L51.4 -21.4L49.9 -21.3L49 -21.5L47.6 -21.8L47 -22.5Z" fill="#3a2213" stroke="#3a2213" stroke-width="5" stroke-linejoin="round"/><path d="M16.7 -25.8L17.8 -30.4L18.9 -33.2L22 -36.4L24.3 -38.2L27.8 -39.4L29.7 -39.7L32 -39.9L34.2 -39.7L36.1 -39.4L39.6 -38.2L42 -36.4L45 -33.2L46.1 -30.4L47.3 -25.8L46.1 -21.2L45 -18.5L42 -15.2L39.6 -13.4L36.1 -12.3L34.2 -11.9L32 -11.7L29.7 -11.9L27.8 -12.3L24.3 -13.4L22 -15.2L18.9 -18.5L17.8 -21.2Z" fill="#3a2213" stroke="#3a2213" stroke-width="5" stroke-linejoin="round"/><path d="M48.1 -30.5L49.6 -33.3L50.6 -34.6L53.1 -35.1L55.6 -34.6L56.7 -33.3L58.1 -30.5L56.7 -27.7L55.6 -26.5L53.1 -26L50.6 -26.5L49.6 -27.7Z" fill="#3a2213" stroke="#3a2213" stroke-width="3" stroke-linejoin="round"/><path d="M46.7 -28.6L48.2 -31.5L49.3 -32.8L51.9 -33.3L54.5 -32.8L55.5 -31.5L57 -28.6L55.5 -25.7L54.5 -24.4L51.9 -23.9L49.3 -24.4L48.2 -25.7Z" fill="#3a2213" stroke="#3a2213" stroke-width="3" stroke-linejoin="round"/><path d="M45.4 -26.7L46.9 -29.6L48 -30.9L50.7 -31.5L53.3 -30.9L54.4 -29.6L55.9 -26.7L54.4 -23.7L53.3 -22.4L50.7 -21.8L48 -22.4L46.9 -23.7Z" fill="#3a2213" stroke="#3a2213" stroke-width="3" stroke-linejoin="round"/><path d="M30.1 -14.3L31.3 -18.5L32 -21L35 -23.9L37.1 -25.5L40.3 -26.6L44.3 -26.9L44.5 -26.9L46.6 -26.6L48.2 -26.4L51.7 -25.2L54.1 -23.5L57 -20.4L58.2 -17.8L59.4 -13.6L58.2 -9.4L57.5 -6.8L54.5 -3.9L52.4 -2.3L49.2 -1.3L45.2 -1L45 -1L42.9 -1.2L41.3 -1.5L37.8 -2.7L35.4 -4.4L32.5 -7.4L31.3 -10Z" fill="#3a2213" stroke="#3a2213" stroke-width="5" stroke-linejoin="round"/><path d="M31.6 -19.8L33.1 -22.7L34.2 -24.1L36.9 -24.6L39.5 -24.1L40.6 -22.7L42.2 -19.8L40.6 -16.8L39.5 -15.5L36.9 -15L34.2 -15.5L33.1 -16.8Z" fill="#3a2213" stroke="#3a2213" stroke-width="3" stroke-linejoin="round"/><path d="M29.5 -20L31 -22.9L32.1 -24.1L34.7 -24.7L37.2 -24.1L38.3 -22.9L39.8 -20L38.3 -17.1L37.2 -15.8L34.7 -15.3L32.1 -15.8L31 -17.1Z" fill="#3a2213" stroke="#3a2213" stroke-width="3" stroke-linejoin="round"/><path d="M24.9 -12.5L25.1 -13.5L25.5 -14.5L26.6 -15.6L27.6 -16.3L28.9 -17.1L30.5 -17.8L32.2 -18.2L33.7 -18.3L34.6 -18.1L36 -17.8L36.6 -17.1L37.1 -16.3L36.9 -15.3L36.4 -14.3L35.4 -13.2L34.4 -12.4L33.1 -11.6L31.4 -11L29.8 -10.6L28.2 -10.5L27.4 -10.6L26 -11L25.3 -11.7Z" fill="#3a2213" stroke="#3a2213" stroke-width="5" stroke-linejoin="round"/><path d="M-4.1 -17.7L-3.6 -18.6L-3.3 -19L-2.5 -19.2L-1.6 -19L-1.3 -18.6L-0.8 -17.7L-1.3 -16.8L-1.6 -16.3L-2.5 -16.2L-3.3 -16.3L-3.6 -16.8Z" fill="#3a2213" stroke="#3a2213" stroke-width="3" stroke-linejoin="round"/><path d="M-3.9 -18.3L-3.3 -19.3L-2.9 -19.8L-2 -20L-1 -19.8L-0.6 -19.3L0 -18.3L-0.6 -17.2L-1 -16.7L-2 -16.5L-2.9 -16.7L-3.3 -17.2Z" fill="#3a2213" stroke="#3a2213" stroke-width="3" stroke-linejoin="round"/><path d="M27.5 -20.2L28.9 -23L30 -24.2L32.5 -24.8L35 -24.2L36 -23L37.5 -20.2L36 -17.4L35 -16.1L32.5 -15.6L30 -16.1L28.9 -17.4Z" fill="#3a2213" stroke="#3a2213" stroke-width="3" stroke-linejoin="round"/><path d="M42.8 -1.3L43.6 -4.1L44.8 -6L46.8 -8L48.7 -9.3L51.4 -10.2L54.3 -10.7L57.2 -10.5L59.5 -9.8L61.3 -8.4L63.2 -6.9L64 -4.3L64.4 -2.3L63.6 0.5L62.4 2.4L60.4 4.4L58.5 5.7L55.8 6.6L52.9 7.1L50 6.9L47.7 6.2L45.9 4.8L44 3.3L43.2 0.7Z" fill="#3a2213" stroke="#3a2213" stroke-width="5" stroke-linejoin="round"/><path d="M-3.6 -18.8L-3 -20.1L-2.5 -20.6L-1.5 -20.8L-0.4 -20.6L0.1 -20.1L0.7 -18.8L0.1 -17.6L-0.4 -17.1L-1.5 -16.9L-2.5 -17.1L-3 -17.6Z" fill="#3a2213" stroke="#3a2213" stroke-width="3" stroke-linejoin="round"/><path d="M-3.4 -19.4L-2.7 -20.8L-2.2 -21.4L-1 -21.6L0.2 -21.4L0.7 -20.8L1.4 -19.4L0.7 -18.1L0.2 -17.5L-1 -17.2L-2.2 -17.5L-2.7 -18.1Z" fill="#3a2213" stroke="#3a2213" stroke-width="3" stroke-linejoin="round"/><path d="M25.4 -20.4L26.8 -23.1L27.8 -24.3L30.2 -24.8L32.7 -24.3L33.7 -23.1L35.1 -20.4L33.7 -17.7L32.7 -16.5L30.2 -16L27.8 -16.5L26.8 -17.7Z" fill="#3a2213" stroke="#3a2213" stroke-width="3" stroke-linejoin="round"/><path d="M-3.1 -20L-2.4 -21.5L-1.8 -22.1L-0.5 -22.4L0.8 -22.1L1.4 -21.5L2.2 -20L1.4 -18.5L0.8 -17.9L-0.5 -17.6L-1.8 -17.9L-2.4 -18.5Z" fill="#3a2213" stroke="#3a2213" stroke-width="3" stroke-linejoin="round"/><path d="M-1.9 -20.6L-1 -22.2L-0.4 -22.9L1 -23.2L2.4 -22.9L3 -22.2L3.8 -20.6L3 -19L2.4 -18.3L1 -18L-0.4 -18.3L-1 -19Z" fill="#3a2213" stroke="#3a2213" stroke-width="3" stroke-linejoin="round"/><path d="M23.3 -20.6L24.7 -23.3L25.7 -24.4L28 -24.9L30.4 -24.4L31.4 -23.3L32.8 -20.6L31.4 -18L30.4 -16.8L28 -16.3L25.7 -16.8L24.7 -18Z" fill="#3a2213" stroke="#3a2213" stroke-width="3" stroke-linejoin="round"/><path d="M-0.6 -21.2L0.3 -22.9L0.9 -23.6L2.5 -24L4 -23.6L4.6 -22.9L5.5 -21.2L4.6 -19.5L4 -18.7L2.5 -18.4L0.9 -18.7L0.3 -19.5Z" fill="#3a2213" stroke="#3a2213" stroke-width="3" stroke-linejoin="round"/><path d="M20.5 -20.9L21.8 -23.5L22.8 -24.6L25.1 -25.1L27.4 -24.6L28.3 -23.5L29.7 -20.9L28.3 -18.4L27.4 -17.2L25.1 -16.7L22.8 -17.2L21.8 -18.4Z" fill="#3a2213" stroke="#3a2213" stroke-width="3" stroke-linejoin="round"/><path d="M0.7 -21.7L1.6 -23.6L2.3 -24.4L3.9 -24.7L5.6 -24.4L6.3 -23.6L7.2 -21.7L6.3 -19.9L5.6 -19.1L3.9 -18.8L2.3 -19.1L1.6 -19.9Z" fill="#3a2213" stroke="#3a2213" stroke-width="3" stroke-linejoin="round"/><path d="M17.7 -21.2L19 -23.7L19.9 -24.8L22.1 -25.3L24.4 -24.8L25.3 -23.7L26.6 -21.2L25.3 -18.7L24.4 -17.6L22.1 -17.2L19.9 -17.6L19 -18.7Z" fill="#3a2213" stroke="#3a2213" stroke-width="3" stroke-linejoin="round"/><path d="M1.9 -22.3L3 -24.3L3.7 -25.1L5.4 -25.5L7.2 -25.1L7.9 -24.3L8.9 -22.3L7.9 -20.4L7.2 -19.5L5.4 -19.2L3.7 -19.5L3 -20.4Z" fill="#3a2213" stroke="#3a2213" stroke-width="3" stroke-linejoin="round"/><path d="M4.5 -22.2L5.5 -24.2L6.3 -25.2L8.1 -25.5L9.9 -25.2L10.7 -24.2L11.8 -22.2L10.7 -20.2L9.9 -19.2L8.1 -18.9L6.3 -19.2L5.5 -20.2Z" fill="#3a2213" stroke="#3a2213" stroke-width="3" stroke-linejoin="round"/><path d="M14.9 -21.5L16.1 -23.9L17 -25L19.2 -25.5L21.3 -25L22.2 -23.9L23.5 -21.5L22.2 -19.1L21.3 -18L19.2 -17.6L17 -18L16.1 -19.1Z" fill="#3a2213" stroke="#3a2213" stroke-width="3" stroke-linejoin="round"/><path d="M7 -22.1L8.1 -24.2L8.9 -25.2L10.8 -25.6L12.7 -25.2L13.5 -24.2L14.6 -22.1L13.5 -19.9L12.7 -19L10.8 -18.6L8.9 -19L8.1 -19.9Z" fill="#3a2213" stroke="#3a2213" stroke-width="3" stroke-linejoin="round"/><path d="M9.5 -22L10.7 -24.2L11.5 -25.2L13.5 -25.6L15.5 -25.2L16.4 -24.2L17.5 -22L16.4 -19.7L15.5 -18.7L13.5 -18.3L11.5 -18.7L10.7 -19.7Z" fill="#3a2213" stroke="#3a2213" stroke-width="3" stroke-linejoin="round"/><path d="M12.1 -21.8L13.3 -24.2L14.1 -25.2L16.2 -25.6L18.3 -25.2L19.2 -24.2L20.4 -21.8L19.2 -19.5L18.3 -18.5L16.2 -18L14.1 -18.5L13.3 -19.5Z" fill="#3a2213" stroke="#3a2213" stroke-width="3" stroke-linejoin="round"/><path d="M50.9 -45.2L51.4 -46.2L51.8 -46.6L52.6 -46.7L53.5 -46.6L53.8 -46.2L54.3 -45.2L53.8 -44.3L53.5 -43.9L52.6 -43.7L51.8 -43.9L51.4 -44.3Z" fill="#e2d6c0"/><path d="M51.2 -45.8L51.8 -46.9L52.2 -47.4L53.1 -47.6L54.1 -47.4L54.5 -46.9L55 -45.8L54.5 -44.7L54.1 -44.3L53.1 -44.1L52.2 -44.3L51.8 -44.7Z" fill="#e2d6c0"/><path d="M51.4 -46.4L52.1 -47.6L52.5 -48.1L53.6 -48.4L54.7 -48.1L55.1 -47.6L55.8 -46.4L55.1 -45.2L54.7 -44.6L53.6 -44.4L52.5 -44.6L52.1 -45.2Z" fill="#e2d6c0"/><path d="M51.7 -47L52.4 -48.3L52.9 -48.9L54.1 -49.2L55.3 -48.9L55.8 -48.3L56.5 -47L55.8 -45.6L55.3 -45L54.1 -44.8L52.9 -45L52.4 -45.6Z" fill="#e2d6c0"/><path d="M51.9 -47.5L52.7 -49L53.3 -49.7L54.6 -50L55.9 -49.7L56.5 -49L57.2 -47.5L56.5 -46.1L55.9 -45.4L54.6 -45.1L53.3 -45.4L52.7 -46.1Z" fill="#e2d6c0"/><path d="M52.2 -47.6L53.1 -49.2L53.7 -49.9L55.1 -50.2L56.5 -49.9L57.1 -49.2L57.9 -47.6L57.1 -46L56.5 -45.3L55.1 -45L53.7 -45.3L53.1 -46Z" fill="#e2d6c0"/><path d="M52.5 -47.7L53.4 -49.4L54 -50.2L55.6 -50.5L57.1 -50.2L57.7 -49.4L58.6 -47.7L57.7 -46L57.1 -45.2L55.6 -44.9L54 -45.2L53.4 -46Z" fill="#e2d6c0"/><path d="M52.8 -47.8L53.7 -49.6L54.4 -50.4L56.1 -50.8L57.7 -50.4L58.4 -49.6L59.3 -47.8L58.4 -46L57.7 -45.2L56.1 -44.8L54.4 -45.2L53.7 -46Z" fill="#e2d6c0"/><path d="M53.1 -47.9L54.1 -49.8L54.8 -50.7L56.6 -51.1L58.3 -50.7L59 -49.8L60 -47.9L59 -45.9L58.3 -45.1L56.6 -44.7L54.8 -45.1L54.1 -45.9Z" fill="#e2d6c0"/><path d="M53.1 -46.5L54.2 -48.6L55 -49.5L56.8 -49.9L58.6 -49.5L59.4 -48.6L60.4 -46.5L59.4 -44.5L58.6 -43.6L56.8 -43.2L55 -43.6L54.2 -44.5Z" fill="#e2d6c0"/><path d="M53.2 -45.2L54.3 -47.3L55.1 -48.3L57 -48.7L59 -48.3L59.7 -47.3L60.9 -45.2L59.7 -43L59 -42.1L57 -41.7L55.1 -42.1L54.3 -43Z" fill="#e2d6c0"/><path d="M53.3 -43.8L54.5 -46.1L55.3 -47.1L57.3 -47.5L59.3 -47.1L60.1 -46.1L61.3 -43.8L60.1 -41.6L59.3 -40.6L57.3 -40.2L55.3 -40.6L54.5 -41.6Z" fill="#e2d6c0"/><path d="M53.4 -42.5L54.6 -44.8L55.4 -45.9L57.5 -46.3L59.6 -45.9L60.5 -44.8L61.7 -42.5L60.5 -40.2L59.6 -39.1L57.5 -38.7L55.4 -39.1L54.6 -40.2Z" fill="#e2d6c0"/><path d="M52.7 -40.5L54 -42.9L54.9 -43.9L57 -44.4L59.2 -43.9L60.1 -42.9L61.4 -40.5L60.1 -38L59.2 -37L57 -36.5L54.9 -37L54 -38Z" fill="#e2d6c0"/><path d="M52.1 -38.4L53.4 -40.9L54.3 -42L56.6 -42.5L58.8 -42L59.7 -40.9L61 -38.4L59.7 -35.9L58.8 -34.8L56.6 -34.4L54.3 -34.8L53.4 -35.9Z" fill="#e2d6c0"/><path d="M51.5 -36.4L52.8 -39L53.8 -40.1L56.1 -40.6L58.4 -40.1L59.3 -39L60.6 -36.4L59.3 -33.8L58.4 -32.7L56.1 -32.2L53.8 -32.7L52.8 -33.8Z" fill="#e2d6c0"/><path d="M50.8 -34.4L52.2 -37L53.2 -38.2L55.6 -38.7L57.9 -38.2L58.9 -37L60.3 -34.4L58.9 -31.7L57.9 -30.6L55.6 -30.1L53.2 -30.6L52.2 -31.7Z" fill="#e2d6c0"/><path d="M49.5 -32.5L50.9 -35.2L51.9 -36.4L54.3 -36.9L56.8 -36.4L57.8 -35.2L59.2 -32.5L57.8 -29.7L56.8 -28.5L54.3 -28L51.9 -28.5L50.9 -29.7Z" fill="#e2d6c0"/><path d="M46.5 -23.3L46.7 -24.3L47.2 -25.3L48.2 -26.4L49.2 -27.2L50.5 -28L52.2 -28.6L53.8 -29L55.4 -29.1L56.2 -29L57.6 -28.6L58.3 -27.9L58.7 -27.1L58.5 -26.1L58.1 -25.1L57 -24L56 -23.3L54.7 -22.5L53.1 -21.8L51.4 -21.4L49.9 -21.3L49 -21.5L47.6 -21.8L47 -22.5Z" fill="#4a4e56"/><path d="M16.7 -25.8L17.8 -30.4L18.9 -33.2L22 -36.4L24.3 -38.2L27.8 -39.4L29.7 -39.7L32 -39.9L34.2 -39.7L36.1 -39.4L39.6 -38.2L42 -36.4L45 -33.2L46.1 -30.4L47.3 -25.8L46.1 -21.2L45 -18.5L42 -15.2L39.6 -13.4L36.1 -12.3L34.2 -11.9L32 -11.7L29.7 -11.9L27.8 -12.3L24.3 -13.4L22 -15.2L18.9 -18.5L17.8 -21.2Z" fill="#5d626b"/><path d="M17.8 -30.4L18.9 -33.2L22 -36.4L24.3 -38.2L27.8 -39.4L29.7 -39.7L32 -39.9L32 -37.9L24.3 -30.5L18.9 -27.7Z" fill="#fff" opacity=".13"/><path d="M48.1 -30.5L49.6 -33.3L50.6 -34.6L53.1 -35.1L55.6 -34.6L56.7 -33.3L58.1 -30.5L56.7 -27.7L55.6 -26.5L53.1 -26L50.6 -26.5L49.6 -27.7Z" fill="#e2d6c0"/><path d="M46.7 -28.6L48.2 -31.5L49.3 -32.8L51.9 -33.3L54.5 -32.8L55.5 -31.5L57 -28.6L55.5 -25.7L54.5 -24.4L51.9 -23.9L49.3 -24.4L48.2 -25.7Z" fill="#e2d6c0"/><path d="M45.4 -26.7L46.9 -29.6L48 -30.9L50.7 -31.5L53.3 -30.9L54.4 -29.6L55.9 -26.7L54.4 -23.7L53.3 -22.4L50.7 -21.8L48 -22.4L46.9 -23.7Z" fill="#e2d6c0"/><path d="M53.1 -16.6L53.8 -18L54.3 -18.6L55.6 -18.9L56.8 -18.6L57.3 -18L58.1 -16.6L57.3 -15.2L56.8 -14.6L55.6 -14.3L54.3 -14.6L53.8 -15.2Z" fill="#fff" stroke="#3a2213" stroke-width="1"/><circle cx="56.2" cy="-16.6" r="1.3" fill="#3a2213"/><path d="M30.1 -14.3L31.3 -18.5L32 -21L35 -23.9L37.1 -25.5L40.3 -26.6L44.3 -26.9L44.5 -26.9L46.6 -26.6L48.2 -26.4L51.7 -25.2L54.1 -23.5L57 -20.4L58.2 -17.8L59.4 -13.6L58.2 -9.4L57.5 -6.8L54.5 -3.9L52.4 -2.3L49.2 -1.3L45.2 -1L45 -1L42.9 -1.2L41.3 -1.5L37.8 -2.7L35.4 -4.4L32.5 -7.4L31.3 -10Z" fill="#5d626b"/><path d="M31.3 -18.5L32 -21L35 -23.9L37.1 -25.5L40.3 -26.6L44.5 -26.9L44.8 -24.9L37.8 -18.2L32.5 -15.8Z" fill="#fff" opacity=".13"/><path d="M31.6 -19.8L33.1 -22.7L34.2 -24.1L36.9 -24.6L39.5 -24.1L40.6 -22.7L42.2 -19.8L40.6 -16.8L39.5 -15.5L36.9 -15L34.2 -15.5L33.1 -16.8Z" fill="#e2d6c0"/><path d="M29.5 -20L31 -22.9L32.1 -24.1L34.7 -24.7L37.2 -24.1L38.3 -22.9L39.8 -20L38.3 -17.1L37.2 -15.8L34.7 -15.3L32.1 -15.8L31 -17.1Z" fill="#e2d6c0"/><path d="M24.9 -12.5L25.1 -13.5L25.5 -14.5L26.6 -15.6L27.6 -16.3L28.9 -17.1L30.5 -17.8L32.2 -18.2L33.7 -18.3L34.6 -18.1L36 -17.8L36.6 -17.1L37.1 -16.3L36.9 -15.3L36.4 -14.3L35.4 -13.2L34.4 -12.4L33.1 -11.6L31.4 -11L29.8 -10.6L28.2 -10.5L27.4 -10.6L26 -11L25.3 -11.7Z" fill="#4a4e56"/><path d="M-4.1 -17.7L-3.6 -18.6L-3.3 -19L-2.5 -19.2L-1.6 -19L-1.3 -18.6L-0.8 -17.7L-1.3 -16.8L-1.6 -16.3L-2.5 -16.2L-3.3 -16.3L-3.6 -16.8Z" fill="#e2d6c0"/><path d="M-3.9 -18.3L-3.3 -19.3L-2.9 -19.8L-2 -20L-1 -19.8L-0.6 -19.3L0 -18.3L-0.6 -17.2L-1 -16.7L-2 -16.5L-2.9 -16.7L-3.3 -17.2Z" fill="#e2d6c0"/><path d="M27.5 -20.2L28.9 -23L30 -24.2L32.5 -24.8L35 -24.2L36 -23L37.5 -20.2L36 -17.4L35 -16.1L32.5 -15.6L30 -16.1L28.9 -17.4Z" fill="#e2d6c0"/><path d="M42.8 -1.3L43.6 -4.1L44.8 -6L46.8 -8L48.7 -9.3L51.4 -10.2L54.3 -10.7L57.2 -10.5L59.5 -9.8L61.3 -8.4L63.2 -6.9L64 -4.3L64.4 -2.3L63.6 0.5L62.4 2.4L60.4 4.4L58.5 5.7L55.8 6.6L52.9 7.1L50 6.9L47.7 6.2L45.9 4.8L44 3.3L43.2 0.7Z" fill="#8a8f98"/><path d="M43.6 -4.1L44.8 -6L46.8 -8L48.7 -9.3L51.4 -10.2L54 -10.5L53.6 -8.9L47.7 -3.9L44 -2.2Z" fill="#fff" opacity=".13"/><path d="M-3.6 -18.8L-3 -20.1L-2.5 -20.6L-1.5 -20.8L-0.4 -20.6L0.1 -20.1L0.7 -18.8L0.1 -17.6L-0.4 -17.1L-1.5 -16.9L-2.5 -17.1L-3 -17.6Z" fill="#e2d6c0"/><path d="M-3.4 -19.4L-2.7 -20.8L-2.2 -21.4L-1 -21.6L0.2 -21.4L0.7 -20.8L1.4 -19.4L0.7 -18.1L0.2 -17.5L-1 -17.2L-2.2 -17.5L-2.7 -18.1Z" fill="#e2d6c0"/><path d="M25.4 -20.4L26.8 -23.1L27.8 -24.3L30.2 -24.8L32.7 -24.3L33.7 -23.1L35.1 -20.4L33.7 -17.7L32.7 -16.5L30.2 -16L27.8 -16.5L26.8 -17.7Z" fill="#e2d6c0"/><path d="M-3.1 -20L-2.4 -21.5L-1.8 -22.1L-0.5 -22.4L0.8 -22.1L1.4 -21.5L2.2 -20L1.4 -18.5L0.8 -17.9L-0.5 -17.6L-1.8 -17.9L-2.4 -18.5Z" fill="#e2d6c0"/><path d="M-1.9 -20.6L-1 -22.2L-0.4 -22.9L1 -23.2L2.4 -22.9L3 -22.2L3.8 -20.6L3 -19L2.4 -18.3L1 -18L-0.4 -18.3L-1 -19Z" fill="#e2d6c0"/><path d="M41.3 -10.7L42 -12.1L42.5 -12.7L43.8 -13L45 -12.7L45.5 -12.1L46.3 -10.7L45.5 -9.3L45 -8.7L43.8 -8.4L42.5 -8.7L42 -9.3Z" fill="#fff" stroke="#3a2213" stroke-width="1"/><circle cx="44.4" cy="-10.7" r="1.3" fill="#3a2213"/><path d="M23.3 -20.6L24.7 -23.3L25.7 -24.4L28 -24.9L30.4 -24.4L31.4 -23.3L32.8 -20.6L31.4 -18L30.4 -16.8L28 -16.3L25.7 -16.8L24.7 -18Z" fill="#e2d6c0"/><path d="M-0.6 -21.2L0.3 -22.9L0.9 -23.6L2.5 -24L4 -23.6L4.6 -22.9L5.5 -21.2L4.6 -19.5L4 -18.7L2.5 -18.4L0.9 -18.7L0.3 -19.5Z" fill="#e2d6c0"/><path d="M20.5 -20.9L21.8 -23.5L22.8 -24.6L25.1 -25.1L27.4 -24.6L28.3 -23.5L29.7 -20.9L28.3 -18.4L27.4 -17.2L25.1 -16.7L22.8 -17.2L21.8 -18.4Z" fill="#e2d6c0"/><path d="M0.7 -21.7L1.6 -23.6L2.3 -24.4L3.9 -24.7L5.6 -24.4L6.3 -23.6L7.2 -21.7L6.3 -19.9L5.6 -19.1L3.9 -18.8L2.3 -19.1L1.6 -19.9Z" fill="#e2d6c0"/><path d="M17.7 -21.2L19 -23.7L19.9 -24.8L22.1 -25.3L24.4 -24.8L25.3 -23.7L26.6 -21.2L25.3 -18.7L24.4 -17.6L22.1 -17.2L19.9 -17.6L19 -18.7Z" fill="#e2d6c0"/><path d="M1.9 -22.3L3 -24.3L3.7 -25.1L5.4 -25.5L7.2 -25.1L7.9 -24.3L8.9 -22.3L7.9 -20.4L7.2 -19.5L5.4 -19.2L3.7 -19.5L3 -20.4Z" fill="#e2d6c0"/><path d="M4.5 -22.2L5.5 -24.2L6.3 -25.2L8.1 -25.5L9.9 -25.2L10.7 -24.2L11.8 -22.2L10.7 -20.2L9.9 -19.2L8.1 -18.9L6.3 -19.2L5.5 -20.2Z" fill="#e2d6c0"/><path d="M14.9 -21.5L16.1 -23.9L17 -25L19.2 -25.5L21.3 -25L22.2 -23.9L23.5 -21.5L22.2 -19.1L21.3 -18L19.2 -17.6L17 -18L16.1 -19.1Z" fill="#e2d6c0"/><path d="M7 -22.1L8.1 -24.2L8.9 -25.2L10.8 -25.6L12.7 -25.2L13.5 -24.2L14.6 -22.1L13.5 -19.9L12.7 -19L10.8 -18.6L8.9 -19L8.1 -19.9Z" fill="#e2d6c0"/><path d="M9.5 -22L10.7 -24.2L11.5 -25.2L13.5 -25.6L15.5 -25.2L16.4 -24.2L17.5 -22L16.4 -19.7L15.5 -18.7L13.5 -18.3L11.5 -18.7L10.7 -19.7Z" fill="#e2d6c0"/><path d="M12.1 -21.8L13.3 -24.2L14.1 -25.2L16.2 -25.6L18.3 -25.2L19.2 -24.2L20.4 -21.8L19.2 -19.5L18.3 -18.5L16.2 -18L14.1 -18.5L13.3 -19.5Z" fill="#e2d6c0"/></g>
</svg>
